<?xml version="1.0" standalone="no"?>
<!DOCTYPE svg PUBLIC "-//W3C//DTD SVG 20010904//EN"
 "http://www.w3.org/TR/2001/REC-SVG-20010904/DTD/svg10.dtd">
<svg version="1.0" xmlns="http://www.w3.org/2000/svg"
 width="689.000000pt" height="689.000000pt" viewBox="0 0 689.000000 689.000000"
 preserveAspectRatio="xMidYMid meet">
<metadata>
Created by potrace 1.11, written by Peter Selinger 2001-2013
</metadata>
<g transform="translate(0.000000,689.000000) scale(0.100000,-0.100000)"
fill="#000000" stroke="none">
<path d="M3220 6857 c-53 -18 -106 -40 -120 -49 -13 -10 -28 -18 -33 -18 -11
0 -79 -53 -123 -95 -77 -74 -111 -173 -80 -233 44 -86 264 -99 431 -26 22 10
46 19 54 20 8 2 17 6 20 11 3 4 31 25 62 46 101 68 179 168 179 231 0 41 -35
94 -79 120 -25 15 -55 20 -125 22 -80 2 -103 -2 -186 -29z"/>
<path d="M3589 6638 c-7 -13 -36 -47 -66 -75 -30 -29 -52 -56 -50 -60 3 -5 8
-26 11 -47 4 -22 9 -42 11 -45 7 -7 -89 -69 -119 -77 -16 -4 -26 -2 -26 4 0 6
-9 27 -21 46 l-20 35 -57 -20 c-68 -24 -210 -35 -270 -21 -43 10 -43 10 -26
-9 25 -28 139 -82 186 -88 36 -5 41 -10 54 -46 7 -21 11 -41 9 -43 -2 -3 0
-12 5 -22 5 -9 12 -31 15 -48 3 -18 17 -78 31 -134 14 -57 27 -114 30 -128 2
-14 7 -32 10 -40 4 -8 8 -31 11 -50 3 -19 9 -43 14 -52 16 -30 10 -60 -22
-110 -44 -67 -47 -107 -15 -173 15 -29 41 -68 59 -85 25 -25 27 -31 12 -27
-24 7 -224 58 -245 62 -8 2 -35 8 -60 14 -25 7 -53 14 -63 16 -11 2 -94 23
-185 45 -92 23 -176 44 -187 46 -47 9 -62 13 -284 68 -101 26 -185 45 -186 44
-2 -2 -19 -73 -39 -158 -65 -270 -137 -564 -143 -580 -3 -8 -7 -19 -8 -25 -2
-5 -15 -57 -30 -115 -15 -57 -28 -109 -30 -115 -1 -5 -5 -17 -8 -25 -3 -8 -7
-24 -10 -35 -22 -89 -157 -536 -197 -650 -11 -33 -21 -62 -22 -65 -1 -9 -6
-22 -58 -170 -28 -80 -53 -152 -54 -160 -5 -21 -123 -325 -147 -377 -10 -24
-19 -50 -19 -58 0 -8 -5 -15 -12 -15 -6 0 -8 -3 -5 -6 4 -4 0 -19 -7 -33 -25
-48 -126 -281 -126 -291 0 -5 -4 -10 -10 -10 -5 0 -10 -7 -10 -16 0 -8 -16
-47 -36 -87 -20 -40 -43 -88 -52 -107 -9 -19 -23 -42 -30 -52 -8 -9 -15 -22
-16 -30 -1 -7 -9 -26 -18 -43 -9 -16 -38 -72 -65 -122 -26 -51 -55 -101 -63
-111 -8 -10 -16 -24 -17 -30 -4 -17 -135 -236 -145 -243 -5 -3 -10 -13 -12
-21 -1 -9 -7 -22 -14 -30 -34 -42 -120 -184 -114 -190 4 -3 34 -9 67 -12 33
-3 71 -7 85 -10 14 -2 45 -7 70 -10 25 -3 56 -9 70 -12 14 -3 43 -7 65 -9 22
-2 65 -8 95 -15 30 -6 69 -13 85 -15 32 -5 67 -11 125 -21 19 -4 42 -8 50 -10
38 -6 87 -15 105 -18 16 -3 154 -32 250 -52 24 -5 56 -12 88 -19 12 -3 45 -10
72 -16 64 -13 79 -17 83 -19 1 -2 7 -4 12 -5 6 -1 13 -4 18 -5 4 -1 11 -2 15
-1 8 1 76 -16 107 -27 8 -3 24 -7 35 -8 44 -8 121 -27 130 -33 6 -3 19 -7 30
-9 29 -5 50 -10 50 -12 0 -1 11 -3 25 -6 14 -2 41 -10 60 -16 19 -7 42 -12 52
-13 9 0 20 -3 24 -7 4 -5 17 -8 29 -8 12 0 25 -3 29 -7 3 -4 17 -8 29 -10 12
-2 29 -6 37 -10 8 -3 26 -8 39 -10 13 -2 42 -11 65 -18 23 -8 49 -15 59 -15 9
0 17 -5 17 -11 0 -5 4 -8 9 -5 5 3 27 -1 50 -9 23 -8 43 -14 46 -14 18 -1 62
-15 73 -24 6 -5 12 -7 12 -3 0 3 15 0 33 -7 17 -8 35 -14 40 -15 21 -2 73 -15
82 -20 12 -8 22 -11 63 -18 17 -4 32 -10 32 -15 0 -5 3 -8 8 -7 14 4 103 -19
192 -50 8 -3 21 -6 28 -8 8 -1 21 -6 30 -10 9 -4 22 -8 27 -9 40 -9 161 -48
165 -54 3 -3 14 -7 25 -8 26 -2 50 -8 104 -27 24 -9 52 -16 62 -16 11 0 19 -4
19 -8 0 -4 8 -9 18 -10 29 -3 41 -7 100 -29 24 -9 23 -9 57 -17 31 -8 66 -19
100 -32 11 -4 26 -6 33 -5 6 1 12 -2 12 -6 0 -5 12 -10 27 -11 15 -1 29 -5 32
-10 6 -7 25 -13 53 -15 10 -1 18 -4 18 -7 0 -3 12 -7 26 -8 15 -1 33 -7 40
-13 8 -6 14 -9 14 -5 0 3 12 1 28 -5 15 -6 34 -12 42 -14 8 -2 22 -6 31 -10
11 -4 26 3 42 19 15 14 31 26 37 26 5 0 10 4 10 9 0 10 68 81 79 82 3 0 28 27
55 60 28 33 55 58 62 55 7 -3 11 0 9 7 -5 11 10 30 95 125 21 23 36 42 32 42
-4 0 0 6 9 13 8 7 33 35 56 64 22 29 44 49 48 45 5 -4 5 -2 2 4 -4 6 4 23 18
38 13 14 22 26 19 26 -3 0 4 10 16 22 11 12 20 27 20 34 0 7 4 14 9 16 8 3
121 164 121 173 0 2 19 32 42 67 24 35 43 65 43 68 1 8 27 54 34 60 7 6 16 23
87 155 70 133 144 284 144 295 0 6 5 10 11 10 5 0 8 4 4 9 -3 5 1 16 9 24 8 8
13 17 10 20 -3 3 -1 13 5 24 18 31 81 175 81 185 0 5 9 28 20 50 11 23 20 47
20 52 0 6 6 23 14 37 7 15 23 56 36 93 12 36 26 68 31 72 5 3 7 9 4 14 -3 4 2
21 10 36 8 16 15 36 15 45 0 9 3 19 7 23 4 3 8 12 9 19 9 45 14 60 23 71 5 6
9 14 9 19 1 24 15 66 21 63 4 -3 7 5 6 17 -1 12 6 43 16 70 10 26 17 47 14 47
-2 0 3 17 11 37 9 20 17 44 19 52 4 23 35 133 42 151 3 8 8 24 10 34 2 11 10
39 18 63 8 24 15 52 15 62 0 10 3 21 7 25 4 3 8 12 9 19 1 7 7 32 14 57 7 25
13 50 14 55 10 51 31 113 37 109 5 -3 11 8 15 23 3 15 8 35 10 43 2 8 4 18 4
22 1 4 7 29 15 55 8 27 30 118 51 203 43 183 38 164 65 270 11 47 23 93 24
103 2 9 6 21 10 26 3 5 -9 14 -27 20 -27 8 -372 94 -428 106 -8 2 -53 13 -100
25 -47 12 -96 24 -110 26 -14 3 -43 10 -65 16 -49 14 -44 13 -130 33 -38 9
-88 21 -110 26 -22 5 -49 12 -60 14 -11 2 -175 42 -365 89 -190 48 -354 88
-365 90 -11 3 -67 16 -125 31 -58 14 -118 29 -135 32 -16 3 -38 9 -47 14 -10
5 -18 8 -18 5 0 -3 -15 0 -32 5 -18 6 -42 12 -53 14 -11 3 -33 8 -50 12 -16 4
-32 7 -35 8 -3 0 -38 9 -78 19 l-73 18 -29 65 c-16 35 -27 69 -24 76 2 7 19
21 36 31 55 33 129 119 166 195 44 91 53 193 23 272 -33 84 -70 105 -202 112
-35 2 -69 21 -69 39 0 5 -5 14 -11 21 -6 7 -53 77 -104 157 -52 80 -98 150
-102 155 -5 6 -20 28 -33 50 -13 22 -26 42 -30 45 -3 3 -14 22 -24 42 -14 26
-17 40 -9 50 16 20 33 77 39 130 7 52 1 60 -17 26z m-57 -296 c10 -18 41 -76
69 -130 29 -53 55 -101 59 -107 7 -9 65 -117 114 -210 12 -22 23 -42 26 -45 3
-3 16 -27 30 -55 13 -27 27 -52 30 -55 3 -3 14 -24 24 -47 l18 -42 -42 -40
c-24 -23 -49 -41 -57 -41 -7 0 -13 -4 -13 -8 0 -5 -18 -16 -41 -25 l-40 -16
-40 86 c-21 47 -39 87 -39 90 0 2 -9 23 -19 46 -10 23 -45 103 -76 177 -31 74
-62 146 -68 160 -6 14 -11 27 -12 30 0 3 -5 14 -11 25 -6 11 -21 47 -34 80
-13 33 -27 64 -32 70 -14 16 -9 21 32 40 22 10 40 21 40 25 0 9 42 29 55 26 5
-1 17 -17 27 -34z m464 -744 c40 -24 76 -49 79 -57 19 -46 -235 -217 -344
-233 -23 -3 -25 0 -24 45 1 26 2 71 2 100 l1 53 51 18 c29 11 72 39 102 67 29
26 54 48 56 49 2 0 37 -19 77 -42z m-89 -330 c9 -18 18 -37 19 -43 1 -5 5 -19
9 -30 3 -11 -8 7 -24 40 -33 65 -33 65 -26 65 2 0 12 -15 22 -32z m-27 -29
c12 -23 20 -42 18 -44 -4 -4 -178 41 -185 49 -4 3 7 6 23 6 16 0 47 7 69 15
54 19 52 20 75 -26z"/>
<path d="M5786 1968 c3 -5 10 -6 15 -3 13 9 11 12 -6 12 -8 0 -12 -4 -9 -9z"/>
<path d="M1716 1083 c-6 -14 -5 -15 5 -6 7 7 10 15 7 18 -3 3 -9 -2 -12 -12z"/>
<path d="M4840 810 c-9 -6 -10 -10 -3 -10 6 0 15 5 18 10 8 12 4 12 -15 0z"/>
<path d="M3755 651 c-3 -5 -2 -12 3 -15 5 -3 9 1 9 9 0 17 -3 19 -12 6z"/>
</g>
</svg>
